<svg width="35" height="34" viewBox="0 0 35 34" fill="none" xmlns="http://www.w3.org/2000/svg">
<path d="M26.8994 0H8.83691C4.43589 0 0.868164 3.56773 0.868164 7.96875V26.0312C0.868164 30.4323 4.43589 34 8.83691 34H26.8994C31.3004 34 34.8682 30.4323 34.8682 26.0312V7.96875C34.8682 3.56773 31.3004 0 26.8994 0Z" fill="url(#paint0_radial_342_1862)"/>
<path d="M26.8994 0H8.83691C4.43589 0 0.868164 3.56773 0.868164 7.96875V26.0312C0.868164 30.4323 4.43589 34 8.83691 34H26.8994C31.3004 34 34.8682 30.4323 34.8682 26.0312V7.96875C34.8682 3.56773 31.3004 0 26.8994 0Z" fill="url(#paint1_radial_342_1862)"/>
<path d="M17.8694 3.71875C14.2624 3.71875 13.8097 3.73455 12.3931 3.79897C10.9792 3.86378 10.014 4.08757 9.16961 4.41602C8.29597 4.75522 7.55501 5.20904 6.81684 5.94748C6.078 6.68578 5.62418 7.42674 5.28391 8.29998C4.95454 9.14467 4.73048 10.1102 4.66687 11.5235C4.60352 12.9402 4.58691 13.3931 4.58691 17.0001C4.58691 20.6072 4.60285 21.0585 4.66713 22.4751C4.73221 23.889 4.956 24.8541 5.28418 25.6986C5.62365 26.5722 6.07747 27.3132 6.81591 28.0513C7.55395 28.7902 8.29491 29.245 9.16788 29.5842C10.013 29.9127 10.9782 30.1365 12.3919 30.2013C13.8086 30.2657 14.261 30.2815 17.8678 30.2815C21.4751 30.2815 21.9264 30.2657 23.343 30.2013C24.7569 30.1365 25.7231 29.9127 26.5682 29.5842C27.4414 29.245 28.1813 28.7902 28.9192 28.0513C29.6581 27.3132 30.1118 26.5722 30.4521 25.699C30.7786 24.8541 31.0028 23.8887 31.0692 22.4753C31.1328 21.0587 31.1494 20.6072 31.1494 17.0001C31.1494 13.3931 31.1328 12.9405 31.0692 11.5237C31.0028 10.1098 30.7786 9.1448 30.4521 8.30038C30.1118 7.42674 29.6581 6.68578 28.9192 5.94748C28.1805 5.20877 27.4417 4.75495 26.5674 4.41615C25.7207 4.08757 24.755 3.86365 23.3411 3.79897C21.9244 3.73455 21.4734 3.71875 17.8652 3.71875H17.8694ZM16.6779 6.11216C17.0316 6.11163 17.4262 6.11216 17.8694 6.11216C21.4156 6.11216 21.8358 6.12491 23.2362 6.18853C24.5311 6.24777 25.2339 6.46412 25.7021 6.64594C26.3219 6.88659 26.7638 7.1744 27.2284 7.63938C27.6932 8.10422 27.9809 8.54688 28.2222 9.16672C28.404 9.63422 28.6207 10.3371 28.6796 11.632C28.7433 13.0321 28.7571 13.4526 28.7571 16.9971C28.7571 20.5416 28.7433 20.9622 28.6796 22.3622C28.6204 23.6571 28.404 24.3599 28.2222 24.8276C27.9816 25.4474 27.6932 25.8887 27.2284 26.3533C26.7635 26.8182 26.3222 27.1058 25.7021 27.3466C25.2345 27.5292 24.5311 27.7451 23.2362 27.8043C21.8361 27.8679 21.4156 27.8817 17.8694 27.8817C14.323 27.8817 13.9026 27.8679 12.5027 27.8043C11.2077 27.7445 10.5049 27.5282 10.0363 27.3464C9.41664 27.1056 8.97384 26.8179 8.509 26.3531C8.04416 25.8882 7.75648 25.4466 7.51516 24.8265C7.33334 24.3589 7.11673 23.656 7.05776 22.3611C6.99414 20.961 6.98139 20.5405 6.98139 16.9938C6.98139 13.4471 6.99414 13.0288 7.05776 11.6287C7.11699 10.3337 7.33334 9.6309 7.51516 9.16273C7.75595 8.5429 8.04416 8.10023 8.50913 7.63539C8.97398 7.17055 9.41664 6.88274 10.0365 6.64155C10.5046 6.45894 11.2077 6.24312 12.5027 6.18362C13.7279 6.12823 14.2027 6.11163 16.6779 6.10884V6.11216ZM24.9589 8.31738C24.079 8.31738 23.3651 9.03059 23.3651 9.9106C23.3651 10.7905 24.079 11.5044 24.9589 11.5044C25.8388 11.5044 26.5526 10.7905 26.5526 9.9106C26.5526 9.03072 25.8388 8.31685 24.9589 8.31685V8.31738ZM17.8694 10.1795C14.1028 10.1795 11.0489 13.2334 11.0489 17.0001C11.0489 20.7668 14.1028 23.8193 17.8694 23.8193C21.6361 23.8193 24.6889 20.7668 24.6889 17.0001C24.6889 13.2336 21.6358 10.1795 17.8691 10.1795H17.8694ZM17.8694 12.573C20.3143 12.573 22.2965 14.5549 22.2965 17.0001C22.2965 19.4451 20.3143 21.4273 17.8694 21.4273C15.4243 21.4273 13.4423 19.4451 13.4423 17.0001C13.4423 14.5549 15.4243 12.573 17.8694 12.573Z" fill="white"/>
<defs>
<radialGradient id="paint0_radial_342_1862" cx="0" cy="0" r="1" gradientUnits="userSpaceOnUse" gradientTransform="translate(9.89941 36.6187) rotate(-90) scale(33.6965 31.3404)">
<stop stop-color="#FFDD55"/>
<stop offset="0.1" stop-color="#FFDD55"/>
<stop offset="0.5" stop-color="#FF543E"/>
<stop offset="1" stop-color="#C837AB"/>
</radialGradient>
<radialGradient id="paint1_radial_342_1862" cx="0" cy="0" r="1" gradientUnits="userSpaceOnUse" gradientTransform="translate(-4.82697 2.4492) rotate(78.681) scale(15.0625 62.0882)">
<stop stop-color="#3771C8"/>
<stop offset="0.128" stop-color="#3771C8"/>
<stop offset="1" stop-color="#6600FF" stop-opacity="0"/>
</radialGradient>
</defs>
</svg>
