<svg width="35" height="34" viewBox="0 0 35 34" fill="none" xmlns="http://www.w3.org/2000/svg">
<g clip-path="url(#clip0_342_1881)">
<g clip-path="url(#clip1_342_1881)">
<mask id="mask0_342_1881" style="mask-type:luminance" maskUnits="userSpaceOnUse" x="-6" y="-1" width="47" height="36">
<path d="M-5.08789 -0.424805H40.8144V34.4252H-5.08789V-0.424805Z" fill="white"/>
</mask>
<g mask="url(#mask0_342_1881)">
<path fill-rule="evenodd" clip-rule="evenodd" d="M-7.97949 -0.424805H43.7118V34.4252H-7.97949V-0.424805Z" fill="#FF0000"/>
<path fill-rule="evenodd" clip-rule="evenodd" d="M7.71961 17.3473C8.63403 16.2174 10.5368 17.3201 12.09 16.5101C10.2477 16.6122 9.24588 15.6116 7.79357 15.7546C9.29967 14.8153 10.5839 16.0609 12.2648 15.564C10.0393 15.3734 10.1334 14.3592 8.10286 14.2163C9.90479 13.4403 10.7923 15.0195 12.5606 14.6587C10.4763 14.1754 10.2074 12.9366 8.66092 12.6712C10.9201 12.3308 10.7721 13.6786 12.9842 13.8419C10.7385 12.8686 11.3235 12.0177 9.44759 11.2758C11.5521 11.2282 11.4109 12.7052 13.549 13.0864C11.7202 11.9156 11.9421 10.847 10.4427 10.0098C12.2244 10.0438 12.3925 11.8884 14.2146 12.4602C12.5942 11.1601 13.0178 10.0574 11.6193 8.89349C13.3944 9.3155 13.1321 10.9083 14.9811 11.9292C13.6095 10.3909 14.134 9.28827 12.9439 8.02904C14.6517 8.58038 13.9995 10.0983 15.7678 11.5413C14.7593 9.84642 15.3846 8.76416 14.3827 7.34157C15.9695 8.16518 15.203 9.71709 16.6688 11.2554C15.9762 9.5197 16.6688 8.44425 15.9628 6.90595C17.321 7.92694 16.5141 9.58096 17.6101 11.1601C17.2067 8.98197 18.1345 8.62803 17.8454 6.72217C18.8741 8.00182 17.7244 9.28147 18.5178 11.1669C18.4169 9.02281 19.5465 8.52593 19.3515 6.81065C20.3668 8.34896 18.78 9.68986 19.4456 11.3371C19.6137 9.30869 20.9316 8.77777 20.9517 7.19863C21.7586 8.64845 20.0104 9.69667 20.2928 11.6229C20.8643 9.49928 22.2696 9.24063 22.4444 7.81123C22.9217 9.48566 21.0055 10.2616 21.1198 12.1266C21.6913 10.2412 23.4462 10.0166 23.8093 8.62803C24.0311 10.3978 22.3032 10.7177 21.8123 12.678C22.72 11.0784 24.3135 10.9491 25.0262 9.68306C24.9725 11.4392 23.0226 11.6706 22.4242 13.311C23.547 11.9156 24.959 12.1539 26.0819 10.9219C25.9608 12.5078 23.9774 12.4193 22.9217 14.0597C24.1387 12.923 25.9743 13.2634 26.9089 12.2832C26.8618 13.6854 24.4278 13.5765 23.2781 14.8357C24.6901 14.0461 26.492 14.509 27.5274 13.7807C27.3392 15.0058 24.7707 14.72 23.5403 15.6865C25.2347 15.21 26.5458 15.9384 27.9107 15.4142C27.245 16.6054 24.9119 15.8499 23.6748 16.6258C25.154 16.374 26.7139 17.2793 28.0519 16.9866C27.6148 18.0212 25.0531 16.9185 23.6815 17.5651C25.3221 17.5515 26.3911 18.6202 27.9174 18.5453C27.0904 19.4846 24.8447 18.1982 23.5336 18.416C25.1338 18.7563 26.3575 20.0904 27.5678 20.1585C26.566 20.9276 24.7102 19.1715 23.1974 19.3893C24.7573 19.8113 26.0617 21.6015 26.9492 21.6423C25.9877 22.3094 24.0917 20.1108 22.794 20.1925C24.3741 20.914 25.0935 22.745 26.1356 23.0037C24.8514 23.4189 23.5874 21.0161 22.209 20.9276C23.8093 21.9486 23.8967 23.5142 25.1271 24.2084C23.8294 24.5283 22.9083 21.8125 21.5434 21.5811C22.8545 22.5544 23.0562 24.6441 23.9236 25.2975C22.6057 25.3656 22.1284 22.5272 20.7769 22.1188C21.9334 23.0989 21.6577 25.2226 22.5587 26.1347C21.1871 25.842 21.3619 23.3712 19.9297 22.534C20.9584 23.8545 20.434 25.7263 21.1064 26.7813C19.7684 26.2368 20.3466 24.0178 19.0758 22.7654C19.7684 24.1676 19.022 25.8012 19.5734 27.1557C18.3497 26.5499 19.17 23.9294 18.2354 22.8879C18.6657 24.5079 17.8723 25.8488 18.195 27.2986C16.9444 25.8352 18.3833 24.3582 17.3008 22.8675C17.5832 24.576 16.3998 25.774 16.5881 27.2034C15.5997 26.0326 17.126 24.1608 16.3528 22.6837C16.5141 24.365 14.9879 25.842 15.0954 26.9039C14.2886 25.5425 15.9897 23.9362 15.5325 22.3911C15.4383 23.9974 13.8919 24.8687 13.6028 26.3321C13.0851 24.7189 14.9206 23.555 14.7593 21.969C14.2348 23.4733 12.7422 24.0791 12.2177 25.5425C11.7874 23.9294 13.9659 23.0785 14.0197 21.3905C13.3473 22.9696 11.5655 23.3236 10.9739 24.5351C10.752 22.9356 13.2464 22.2209 13.3406 20.703C12.5337 22.1596 10.5839 22.2209 9.91152 23.378C9.81066 21.7853 12.4396 21.5879 12.8497 19.9202C12.0496 21.1591 9.91152 21.0025 9.01728 22.0099C9.15847 20.5328 12.0026 20.4444 12.4598 19.1103C11.3974 20.1449 9.43414 19.7229 8.32474 20.5396C8.94332 19.083 11.6126 19.3893 12.211 18.3411C11.0344 18.9605 8.94332 18.3547 7.90788 18.9809C8.84918 17.606 10.9201 18.4296 12.0967 17.4835C10.1872 17.7625 9.03745 16.9934 7.71289 17.3473H7.71961Z" fill="#FFFF00"/>
<path fill-rule="evenodd" clip-rule="evenodd" d="M24.5622 17.0071C24.5622 18.7988 23.8592 20.5171 22.6077 21.784C21.3562 23.0509 19.6589 23.7627 17.889 23.7627C16.1192 23.7627 14.4218 23.0509 13.1704 21.784C11.9189 20.5171 11.2158 18.7988 11.2158 17.0071C11.2158 15.2163 11.9185 13.4988 13.1694 12.2326C14.4202 10.9663 16.1167 10.2549 17.8857 10.2549C19.6546 10.2549 21.3511 10.9663 22.602 12.2326C23.8528 13.4988 24.5555 15.2163 24.5555 17.0071H24.5622Z" fill="#FFFF00"/>
<path fill-rule="evenodd" clip-rule="evenodd" d="M23.7017 17.0206C23.7017 18.5785 23.0903 20.0726 22.0022 21.1743C20.914 22.2759 19.4381 22.8947 17.8992 22.8947C16.3603 22.8947 14.8844 22.2759 13.7962 21.1743C12.708 20.0726 12.0967 18.5785 12.0967 17.0206C12.0967 15.4627 12.708 13.9686 13.7962 12.867C14.8844 11.7654 16.3603 11.1465 17.8992 11.1465C19.4381 11.1465 20.914 11.7654 22.0022 12.867C23.0903 13.9686 23.7017 15.4627 23.7017 17.0206Z" fill="#FF0000"/>
<path fill-rule="evenodd" clip-rule="evenodd" d="M22.8951 17.0344C22.8951 18.3721 22.3702 19.655 21.4358 20.6009C20.5015 21.5468 19.2342 22.0782 17.9129 22.0782C16.5915 22.0782 15.3243 21.5468 14.3899 20.6009C13.4556 19.655 12.9307 18.3721 12.9307 17.0344C12.9307 15.6968 13.4556 14.4139 14.3899 13.468C15.3243 12.5221 16.5915 11.9907 17.9129 11.9907C19.2342 11.9907 20.5015 12.5221 21.4358 13.468C22.3702 14.4139 22.8951 15.6968 22.8951 17.0344Z" fill="#FFFF00"/>
<path fill-rule="evenodd" clip-rule="evenodd" d="M13.6703 13.7329C15.0487 13.6988 16.7632 13.8282 17.8995 14.7403C19.1134 13.9733 20.5426 13.6313 21.9673 13.7669L22.7069 15.135C21.5576 15.0289 20.4006 15.221 19.3451 15.6932C20.0995 16.2565 20.706 16.9983 21.1116 17.8539C21.5171 18.7094 21.7094 19.6526 21.6715 20.6008C21.4899 20.8322 21.2008 21.0841 21.0193 21.3155C21.2882 19.3756 20.2797 17.2111 18.8072 16.0744C20.004 17.8169 20.71 19.3824 20.515 21.5469L19.8426 21.9825C20.1519 20.0767 19.7082 17.8305 18.3164 16.5372C19.1232 17.7284 19.9166 19.8725 19.419 22.0506C19.2039 22.1187 18.8677 22.3024 18.6525 22.3637C18.9161 21.4701 18.9877 20.5297 18.8625 19.6057C18.7372 18.6817 18.418 17.7956 17.9264 17.0069C16.9985 18.3546 16.696 20.4102 17.2204 22.3161C16.9649 22.248 16.7699 22.1663 16.5077 22.105C16.1245 20.0631 16.6556 17.7488 17.5768 16.544C16.6355 17.0954 15.7547 19.4505 16.0034 21.8532L15.3781 21.5605C15.0756 19.7704 15.8757 17.4357 17.0254 16.088C15.721 16.9184 14.6587 18.9672 14.8402 21.1657C14.6385 20.9888 14.457 20.9003 14.2553 20.7165C14.0267 18.797 15.1294 16.8639 16.4136 15.7068C15.3311 15.2099 14.3965 15.1146 13.0518 15.135C13.2602 14.6926 13.4552 14.1753 13.6703 13.7261V13.7329Z" fill="#FF0000"/>
</g>
</g>
</g>
<defs>
<clipPath id="clip0_342_1881">
<rect x="0.868164" width="34" height="34" rx="17" fill="white"/>
</clipPath>
<clipPath id="clip1_342_1881">
<rect width="45.9" height="34.85" fill="white" transform="translate(-5.08203 -0.424805)"/>
</clipPath>
</defs>
</svg>
