<svg width="34" height="34" viewBox="0 0 34 34" fill="none" xmlns="http://www.w3.org/2000/svg">
<g clip-path="url(#clip0_342_1857)">
<path d="M0.851557 16.7967C0.850766 19.6534 1.59718 22.4427 3.01649 24.9013L0.71582 33.3014L9.31229 31.0474C11.69 32.3417 14.354 33.02 17.0611 33.0201H17.0682C26.0051 33.0201 33.2799 25.748 33.2837 16.8095C33.2854 12.4782 31.6002 8.40533 28.5384 5.34112C25.477 2.27716 21.4056 0.588891 17.0676 0.586914C8.12967 0.586914 0.855378 7.8587 0.851689 16.7967" fill="url(#paint0_linear_342_1857)"/>
<path d="M0.272844 16.7913C0.271921 19.7507 1.04509 22.6398 2.515 25.1864L0.131836 33.8876L9.03654 31.5528C11.4901 32.8905 14.2525 33.5958 17.0634 33.5969H17.0707C26.3282 33.5969 33.8643 26.0631 33.8683 16.8047C33.8699 12.3178 32.124 8.09846 28.9528 4.92447C25.7811 1.75087 21.5641 0.00184496 17.0707 0C7.81162 0 0.276534 7.53271 0.272844 16.7913ZM5.57579 24.7478L5.2433 24.22C3.84561 21.9976 3.10789 19.4294 3.10894 16.7923C3.11198 9.09685 9.37483 2.83597 17.076 2.83597C20.8054 2.83755 24.3103 4.29138 26.9465 6.92915C29.5826 9.56718 31.0331 13.0739 31.0322 16.8036C31.0287 24.4991 24.7658 30.7608 17.0707 30.7608H17.0652C14.5596 30.7595 12.1022 30.0866 9.95915 28.815L9.44915 28.5126L4.16492 29.898L5.57579 24.7477V24.7478Z" fill="url(#paint1_linear_342_1857)"/>
<path d="M12.8721 9.77159C12.5577 9.07274 12.2268 9.05864 11.9278 9.04639C11.6829 9.03584 11.403 9.03663 11.1234 9.03663C10.8435 9.03663 10.3887 9.14193 10.0043 9.56166C9.61947 9.98178 8.53516 10.997 8.53516 13.0619C8.53516 15.127 10.0392 17.1226 10.2489 17.4029C10.4588 17.6827 13.1524 22.0557 17.4185 23.7381C20.964 25.1362 21.6855 24.8581 22.455 24.788C23.2246 24.7181 24.9383 23.773 25.2879 22.7929C25.6378 21.813 25.6378 20.973 25.5329 20.7975C25.428 20.6226 25.1481 20.5176 24.7284 20.3078C24.3085 20.0978 22.2451 19.0824 21.8604 18.9424C21.4756 18.8024 21.1958 18.7326 20.9159 19.1528C20.636 19.5724 19.8322 20.5176 19.5873 20.7975C19.3425 21.078 19.0976 21.113 18.678 20.903C18.258 20.6924 16.9063 20.2498 15.3026 18.8201C14.0549 17.7076 13.2125 16.3337 12.9677 15.9135C12.7228 15.4939 12.9415 15.2664 13.1519 15.0573C13.3405 14.8692 13.5718 14.5672 13.7818 14.3222C13.9911 14.0771 14.0609 13.9022 14.2009 13.6223C14.341 13.3421 14.2709 13.097 14.1661 12.8871C14.0609 12.6771 13.2453 10.6014 12.8721 9.77159Z" fill="white"/>
</g>
<defs>
<linearGradient id="paint0_linear_342_1857" x1="16.9998" y1="33.3014" x2="16.9998" y2="0.586914" gradientUnits="userSpaceOnUse">
<stop stop-color="#1FAF38"/>
<stop offset="1" stop-color="#60D669"/>
</linearGradient>
<linearGradient id="paint1_linear_342_1857" x1="17.0001" y1="33.8876" x2="17.0001" y2="0" gradientUnits="userSpaceOnUse">
<stop stop-color="#F9F9F9"/>
<stop offset="1" stop-color="white"/>
</linearGradient>
<clipPath id="clip0_342_1857">
<rect width="33.7364" height="34" fill="white" transform="translate(0.131836)"/>
</clipPath>
</defs>
</svg>
