<svg width="672" height="406" viewBox="0 0 672 406" fill="none" xmlns="http://www.w3.org/2000/svg">
<g filter="url(#filter0_b_5_2)">
<path d="M0 20C0 8.95431 8.95431 0 20 0H585.084C594.76 0 603.049 6.92801 604.766 16.4513L670.754 382.451C672.966 394.72 663.538 406 651.072 406H20C8.95432 406 0 397.046 0 386V20Z" fill="#A0FFAA" fill-opacity="0.5"/>
<path d="M20 4H585.083C592.825 4 599.456 9.5424 600.83 17.161L666.818 383.161C668.587 392.976 661.044 402 651.072 402H20C11.1635 402 4 394.837 4 386V20C4 11.1634 11.1634 4 20 4Z" stroke="url(#paint0_linear_5_2)" stroke-opacity="0.2" stroke-width="8"/>
</g>
<line x1="1" y1="29" x2="549" y2="29" stroke="white" stroke-width="2" stroke-linecap="round"/>
<line x1="29" y1="383" x2="29" y2="1" stroke="white" stroke-width="2" stroke-linecap="round"/>
<defs>
<filter id="filter0_b_5_2" x="-50" y="-50" width="771.077" height="506" filterUnits="userSpaceOnUse" color-interpolation-filters="sRGB">
<feFlood flood-opacity="0" result="BackgroundImageFix"/>
<feGaussianBlur in="BackgroundImageFix" stdDeviation="25"/>
<feComposite in2="SourceAlpha" operator="in" result="effect1_backgroundBlur_5_2"/>
<feBlend mode="normal" in="SourceGraphic" in2="effect1_backgroundBlur_5_2" result="shape"/>
</filter>
<linearGradient id="paint0_linear_5_2" x1="0" y1="0" x2="707.4" y2="426.88" gradientUnits="userSpaceOnUse">
<stop stop-color="#1FC22F"/>
<stop offset="1" stop-color="#52DE60"/>
</linearGradient>
</defs>
</svg>
